<mxfile host="app.diagrams.net" modified="2024-06-19T14:08:26.348Z" agent="Mozilla/5.0 (Macintosh; Intel Mac OS X 10_15_7) AppleWebKit/537.36 (KHTML, like Gecko) Chrome/126.0.0.0 Safari/537.36" etag="SGl82wVBswSeU8sQx_qP" version="24.5.5" type="github">
  <diagram name="Page-1" id="O0wEJRaNHXb9twbTC883">
    <mxGraphModel dx="1012" dy="707" grid="1" gridSize="10" guides="1" tooltips="1" connect="1" arrows="1" fold="1" page="1" pageScale="1" pageWidth="827" pageHeight="1169" math="1" shadow="0">
      <root>
        <mxCell id="0" />
        <mxCell id="1" parent="0" />
        <mxCell id="dDqRAfCX4KW8CPbdggCC-2" value="" style="rounded=0;whiteSpace=wrap;html=1;fillColor=none;dashed=1;dashPattern=1 2;" vertex="1" parent="1">
          <mxGeometry x="194.5" y="80" width="110" height="190" as="geometry" />
        </mxCell>
        <mxCell id="Y9xQykt3Nz5YGnt7pqd_-141" value="" style="rounded=0;whiteSpace=wrap;html=1;fillColor=none;dashed=1;dashPattern=1 2;" parent="1" vertex="1">
          <mxGeometry x="73.5" y="275" width="110" height="215" as="geometry" />
        </mxCell>
        <mxCell id="Y9xQykt3Nz5YGnt7pqd_-128" value="&lt;font style=&quot;font-size: 9px;&quot;&gt;$$\times 2$$&lt;/font&gt;" style="text;html=1;align=center;verticalAlign=middle;resizable=0;points=[];autosize=1;strokeColor=none;fillColor=none;fontSize=20;fontFamily=Architects Daughter;" parent="1" vertex="1">
          <mxGeometry x="254.5" y="354" width="80" height="40" as="geometry" />
        </mxCell>
        <mxCell id="Y9xQykt3Nz5YGnt7pqd_-143" value="" style="rounded=0;whiteSpace=wrap;html=1;fillColor=none;dashed=1;" parent="1" vertex="1">
          <mxGeometry x="84.5" y="358" width="80" height="118" as="geometry" />
        </mxCell>
        <mxCell id="Y9xQykt3Nz5YGnt7pqd_-132" value="" style="rounded=0;whiteSpace=wrap;html=1;fillColor=none;dashed=1;dashPattern=1 2;" parent="1" vertex="1">
          <mxGeometry x="194.5" y="309" width="110" height="180" as="geometry" />
        </mxCell>
        <mxCell id="Y9xQykt3Nz5YGnt7pqd_-126" value="" style="rounded=0;whiteSpace=wrap;html=1;fillColor=none;dashed=1;" parent="1" vertex="1">
          <mxGeometry x="205.5" y="314" width="80" height="115" as="geometry" />
        </mxCell>
        <mxCell id="Y9xQykt3Nz5YGnt7pqd_-121" value="" style="rounded=0;whiteSpace=wrap;html=1;fillColor=none;dashed=1;dashPattern=1 2;" parent="1" vertex="1">
          <mxGeometry x="316" y="80" width="297.5" height="260" as="geometry" />
        </mxCell>
        <mxCell id="Y9xQykt3Nz5YGnt7pqd_-76" style="edgeStyle=orthogonalEdgeStyle;rounded=1;hachureGap=4;orthogonalLoop=1;jettySize=auto;html=1;exitX=0.389;exitY=0.25;exitDx=0;exitDy=0;fontFamily=Architects Daughter;fontSource=https%3A%2F%2Ffonts.googleapis.com%2Fcss%3Ffamily%3DArchitects%2BDaughter;fontSize=16;endSize=3;startSize=3;endArrow=blockThin;endFill=1;fillColor=#1ba1e2;strokeColor=#006EAF;exitPerimeter=0;" parent="1" edge="1">
          <mxGeometry relative="1" as="geometry">
            <mxPoint x="456.0100000000002" y="305" as="sourcePoint" />
            <mxPoint x="516" y="205" as="targetPoint" />
            <Array as="points">
              <mxPoint x="456" y="205" />
            </Array>
          </mxGeometry>
        </mxCell>
        <mxCell id="Y9xQykt3Nz5YGnt7pqd_-46" value="&lt;font face=&quot;Times New Roman&quot;&gt;&lt;font style=&quot;font-size: 10px;&quot;&gt;Upsample Block&lt;/font&gt;&lt;br&gt;&lt;/font&gt;" style="rounded=1;whiteSpace=wrap;html=1;gradientColor=none;fillStyle=auto;opacity=90;" parent="1" vertex="1">
          <mxGeometry x="516" y="180" width="60" height="40" as="geometry" />
        </mxCell>
        <mxCell id="Y9xQykt3Nz5YGnt7pqd_-75" style="edgeStyle=orthogonalEdgeStyle;rounded=1;hachureGap=4;orthogonalLoop=1;jettySize=auto;html=1;fontFamily=Architects Daughter;fontSource=https%3A%2F%2Ffonts.googleapis.com%2Fcss%3Ffamily%3DArchitects%2BDaughter;fontSize=16;entryX=1;entryY=0.75;entryDx=0;entryDy=0;endSize=3;startSize=3;fillColor=#1ba1e2;strokeColor=#006EAF;endArrow=blockThin;endFill=1;" parent="1" edge="1">
          <mxGeometry relative="1" as="geometry">
            <mxPoint x="397" y="205" as="targetPoint" />
            <mxPoint x="456" y="310" as="sourcePoint" />
            <Array as="points">
              <mxPoint x="456" y="305" />
              <mxPoint x="456" y="205" />
            </Array>
          </mxGeometry>
        </mxCell>
        <mxCell id="Y9xQykt3Nz5YGnt7pqd_-74" style="edgeStyle=orthogonalEdgeStyle;rounded=1;hachureGap=4;orthogonalLoop=1;jettySize=auto;html=1;exitX=0.389;exitY=0.25;exitDx=0;exitDy=0;entryX=0;entryY=0.75;entryDx=0;entryDy=0;fontFamily=Architects Daughter;fontSource=https%3A%2F%2Ffonts.googleapis.com%2Fcss%3Ffamily%3DArchitects%2BDaughter;fontSize=16;endSize=3;startSize=3;endArrow=blockThin;endFill=1;fillColor=#1ba1e2;strokeColor=#006EAF;exitPerimeter=0;" parent="1" edge="1">
          <mxGeometry relative="1" as="geometry">
            <mxPoint x="456.0100000000002" y="317" as="sourcePoint" />
            <mxPoint x="526" y="217" as="targetPoint" />
            <Array as="points">
              <mxPoint x="456" y="217" />
            </Array>
          </mxGeometry>
        </mxCell>
        <mxCell id="Y9xQykt3Nz5YGnt7pqd_-73" style="edgeStyle=orthogonalEdgeStyle;rounded=1;hachureGap=4;orthogonalLoop=1;jettySize=auto;html=1;exitX=0.389;exitY=0.25;exitDx=0;exitDy=0;fontFamily=Architects Daughter;fontSource=https%3A%2F%2Ffonts.googleapis.com%2Fcss%3Ffamily%3DArchitects%2BDaughter;fontSize=16;entryX=1;entryY=0.75;entryDx=0;entryDy=0;endSize=3;startSize=3;exitPerimeter=0;fillColor=#1ba1e2;strokeColor=#006EAF;endArrow=blockThin;endFill=1;" parent="1" edge="1">
          <mxGeometry relative="1" as="geometry">
            <mxPoint x="406" y="217" as="targetPoint" />
            <mxPoint x="456.0100000000002" y="317" as="sourcePoint" />
            <Array as="points">
              <mxPoint x="456" y="217" />
            </Array>
          </mxGeometry>
        </mxCell>
        <mxCell id="Y9xQykt3Nz5YGnt7pqd_-18" style="edgeStyle=orthogonalEdgeStyle;rounded=1;hachureGap=4;orthogonalLoop=1;jettySize=auto;html=1;exitX=1;exitY=0.5;exitDx=0;exitDy=0;fontFamily=Architects Daughter;fontSource=https%3A%2F%2Ffonts.googleapis.com%2Fcss%3Ffamily%3DArchitects%2BDaughter;fontSize=16;endArrow=blockThin;endFill=1;endSize=3;startSize=3;" parent="1" source="Y9xQykt3Nz5YGnt7pqd_-15" edge="1">
          <mxGeometry relative="1" as="geometry">
            <mxPoint x="436.5" y="280.08108108108104" as="targetPoint" />
          </mxGeometry>
        </mxCell>
        <mxCell id="Y9xQykt3Nz5YGnt7pqd_-70" style="edgeStyle=orthogonalEdgeStyle;rounded=1;hachureGap=4;orthogonalLoop=1;jettySize=auto;html=1;fontFamily=Architects Daughter;fontSource=https%3A%2F%2Ffonts.googleapis.com%2Fcss%3Ffamily%3DArchitects%2BDaughter;fontSize=16;endSize=3;startSize=3;endArrow=blockThin;endFill=1;fillColor=#1ba1e2;strokeColor=#006EAF;" parent="1" target="Y9xQykt3Nz5YGnt7pqd_-15" edge="1">
          <mxGeometry relative="1" as="geometry">
            <mxPoint x="426" y="330" as="sourcePoint" />
            <Array as="points">
              <mxPoint x="376" y="330" />
            </Array>
          </mxGeometry>
        </mxCell>
        <mxCell id="Y9xQykt3Nz5YGnt7pqd_-15" value="&lt;font face=&quot;Times New Roman&quot;&gt;&lt;font style=&quot;font-size: 10px;&quot;&gt;3D &lt;br&gt;ResBlock&lt;/font&gt;&lt;br&gt;&lt;/font&gt;" style="rounded=1;whiteSpace=wrap;html=1;opacity=90;" parent="1" vertex="1">
          <mxGeometry x="346" y="260" width="60" height="40" as="geometry" />
        </mxCell>
        <mxCell id="Y9xQykt3Nz5YGnt7pqd_-16" value="&lt;font style=&quot;font-size: 9px;&quot;&gt;$$\times 3$$&lt;/font&gt;" style="text;html=1;align=center;verticalAlign=middle;resizable=0;points=[];autosize=1;strokeColor=none;fillColor=none;fontSize=20;fontFamily=Architects Daughter;" parent="1" vertex="1">
          <mxGeometry x="293.5" y="260" width="80" height="40" as="geometry" />
        </mxCell>
        <mxCell id="Y9xQykt3Nz5YGnt7pqd_-21" style="edgeStyle=orthogonalEdgeStyle;rounded=1;hachureGap=4;orthogonalLoop=1;jettySize=auto;html=1;fontFamily=Architects Daughter;fontSource=https%3A%2F%2Ffonts.googleapis.com%2Fcss%3Ffamily%3DArchitects%2BDaughter;fontSize=16;endArrow=blockThin;endFill=1;endSize=3;startSize=3;" parent="1" source="Y9xQykt3Nz5YGnt7pqd_-20" edge="1">
          <mxGeometry relative="1" as="geometry">
            <mxPoint x="526.5" y="280" as="targetPoint" />
          </mxGeometry>
        </mxCell>
        <mxCell id="Y9xQykt3Nz5YGnt7pqd_-71" style="edgeStyle=orthogonalEdgeStyle;rounded=1;hachureGap=4;orthogonalLoop=1;jettySize=auto;html=1;fontFamily=Architects Daughter;fontSource=https%3A%2F%2Ffonts.googleapis.com%2Fcss%3Ffamily%3DArchitects%2BDaughter;fontSize=16;endSize=3;startSize=3;endArrow=blockThin;endFill=1;fillColor=#1ba1e2;strokeColor=#006EAF;" parent="1" target="Y9xQykt3Nz5YGnt7pqd_-22" edge="1">
          <mxGeometry relative="1" as="geometry">
            <mxPoint x="486" y="330" as="sourcePoint" />
            <Array as="points">
              <mxPoint x="496" y="330" />
              <mxPoint x="556" y="330" />
            </Array>
          </mxGeometry>
        </mxCell>
        <mxCell id="Y9xQykt3Nz5YGnt7pqd_-20" value="&lt;font style=&quot;font-size: 10px;&quot; face=&quot;Times New Roman&quot;&gt;&lt;font style=&quot;font-size: 10px;&quot;&gt;AFNO&lt;br&gt;&lt;/font&gt;CrossAtt&lt;br&gt;&lt;/font&gt;" style="rounded=1;whiteSpace=wrap;html=1;opacity=90;" parent="1" vertex="1">
          <mxGeometry x="436" y="260" width="60" height="40" as="geometry" />
        </mxCell>
        <mxCell id="Y9xQykt3Nz5YGnt7pqd_-22" value="&lt;font face=&quot;Times New Roman&quot;&gt;&lt;font style=&quot;font-size: 10px;&quot;&gt;3D &lt;br&gt;ResBlock&lt;/font&gt;&lt;br&gt;&lt;/font&gt;" style="rounded=1;whiteSpace=wrap;html=1;opacity=90;" parent="1" vertex="1">
          <mxGeometry x="526" y="260" width="60" height="40" as="geometry" />
        </mxCell>
        <mxCell id="Y9xQykt3Nz5YGnt7pqd_-45" style="edgeStyle=orthogonalEdgeStyle;rounded=1;hachureGap=4;orthogonalLoop=1;jettySize=auto;html=1;fontFamily=Architects Daughter;fontSource=https%3A%2F%2Ffonts.googleapis.com%2Fcss%3Ffamily%3DArchitects%2BDaughter;fontSize=16;entryX=1;entryY=0.5;entryDx=0;entryDy=0;endSize=3;startSize=3;fillColor=#e51400;strokeColor=#B20000;endArrow=blockThin;endFill=1;" parent="1" target="Y9xQykt3Nz5YGnt7pqd_-50" edge="1">
          <mxGeometry relative="1" as="geometry">
            <mxPoint x="416" y="200" as="targetPoint" />
            <mxPoint x="456.5" y="160" as="sourcePoint" />
            <Array as="points">
              <mxPoint x="456.5" y="210" />
            </Array>
          </mxGeometry>
        </mxCell>
        <mxCell id="Y9xQykt3Nz5YGnt7pqd_-47" style="edgeStyle=orthogonalEdgeStyle;rounded=1;hachureGap=4;orthogonalLoop=1;jettySize=auto;html=1;fontFamily=Architects Daughter;fontSource=https%3A%2F%2Ffonts.googleapis.com%2Fcss%3Ffamily%3DArchitects%2BDaughter;fontSize=16;entryX=0;entryY=0.5;entryDx=0;entryDy=0;endSize=3;exitX=0.5;exitY=1;exitDx=0;exitDy=0;startSize=3;fillColor=#e51400;strokeColor=#B20000;endArrow=blockThin;endFill=1;" parent="1" source="Y9xQykt3Nz5YGnt7pqd_-40" target="Y9xQykt3Nz5YGnt7pqd_-51" edge="1">
          <mxGeometry relative="1" as="geometry">
            <mxPoint x="466" y="200" as="targetPoint" />
            <Array as="points">
              <mxPoint x="455.5" y="210" />
            </Array>
          </mxGeometry>
        </mxCell>
        <mxCell id="Y9xQykt3Nz5YGnt7pqd_-40" value="&lt;font style=&quot;border-color: var(--border-color); font-family: &amp;quot;Times New Roman&amp;quot;; font-size: 9px;&quot;&gt;Downsampling&lt;br style=&quot;border-color: var(--border-color);&quot;&gt;3D ResBloc&lt;/font&gt;&lt;font style=&quot;border-color: var(--border-color); font-family: &amp;quot;Times New Roman&amp;quot;; font-size: 9px;&quot;&gt;k&lt;/font&gt;&lt;font face=&quot;Times New Roman&quot;&gt;&lt;br&gt;&lt;/font&gt;" style="rounded=1;whiteSpace=wrap;html=1;gradientColor=none;fillStyle=auto;opacity=90;" parent="1" vertex="1">
          <mxGeometry x="426" y="120" width="60" height="40" as="geometry" />
        </mxCell>
        <mxCell id="Y9xQykt3Nz5YGnt7pqd_-44" value="&lt;font face=&quot;Times New Roman&quot;&gt;&lt;font size=&quot;1&quot;&gt;Downsample Block&lt;/font&gt;&lt;br&gt;&lt;/font&gt;" style="rounded=1;whiteSpace=wrap;html=1;gradientColor=none;fillStyle=auto;opacity=90;" parent="1" vertex="1">
          <mxGeometry x="336" y="180" width="60" height="40" as="geometry" />
        </mxCell>
        <mxCell id="Y9xQykt3Nz5YGnt7pqd_-193" style="edgeStyle=orthogonalEdgeStyle;rounded=1;hachureGap=4;orthogonalLoop=1;jettySize=auto;html=1;entryX=0.5;entryY=0;entryDx=0;entryDy=0;fontFamily=Architects Daughter;fontSource=https%3A%2F%2Ffonts.googleapis.com%2Fcss%3Ffamily%3DArchitects%2BDaughter;fontSize=16;endSize=3;startSize=3;endArrow=blockThin;endFill=1;fillColor=#e51400;strokeColor=#B20000;" parent="1" source="Y9xQykt3Nz5YGnt7pqd_-48" target="Y9xQykt3Nz5YGnt7pqd_-20" edge="1">
          <mxGeometry relative="1" as="geometry" />
        </mxCell>
        <mxCell id="Y9xQykt3Nz5YGnt7pqd_-48" value="&lt;font style=&quot;border-color: var(--border-color); font-family: &amp;quot;Times New Roman&amp;quot;; font-size: 9px;&quot;&gt;Downsampling&lt;br style=&quot;border-color: var(--border-color);&quot;&gt;3D ResBloc&lt;/font&gt;&lt;font style=&quot;border-color: var(--border-color); font-family: &amp;quot;Times New Roman&amp;quot;; font-size: 9px;&quot;&gt;k&lt;/font&gt;&lt;font face=&quot;Times New Roman&quot;&gt;&lt;br&gt;&lt;/font&gt;" style="rounded=1;whiteSpace=wrap;html=1;gradientColor=none;fillStyle=auto;opacity=90;" parent="1" vertex="1">
          <mxGeometry x="436" y="130" width="60" height="40" as="geometry" />
        </mxCell>
        <mxCell id="Y9xQykt3Nz5YGnt7pqd_-50" value="&lt;font face=&quot;Times New Roman&quot;&gt;&lt;font size=&quot;1&quot;&gt;Downsample Block&lt;/font&gt;&lt;br&gt;&lt;/font&gt;" style="rounded=1;whiteSpace=wrap;html=1;gradientColor=none;fillStyle=auto;opacity=90;" parent="1" vertex="1">
          <mxGeometry x="346" y="190" width="60" height="40" as="geometry" />
        </mxCell>
        <mxCell id="Y9xQykt3Nz5YGnt7pqd_-60" style="edgeStyle=orthogonalEdgeStyle;rounded=1;hachureGap=4;orthogonalLoop=1;jettySize=auto;html=1;fontFamily=Architects Daughter;fontSource=https%3A%2F%2Ffonts.googleapis.com%2Fcss%3Ffamily%3DArchitects%2BDaughter;fontSize=16;startSize=3;endSize=3;endArrow=blockThin;endFill=1;exitX=0.5;exitY=0;exitDx=0;exitDy=0;" parent="1" source="Y9xQykt3Nz5YGnt7pqd_-22" target="Y9xQykt3Nz5YGnt7pqd_-51" edge="1">
          <mxGeometry relative="1" as="geometry" />
        </mxCell>
        <mxCell id="Y9xQykt3Nz5YGnt7pqd_-51" value="&lt;font face=&quot;Times New Roman&quot;&gt;&lt;font style=&quot;font-size: 10px;&quot;&gt;Upsample Block&lt;/font&gt;&lt;br&gt;&lt;/font&gt;" style="rounded=1;whiteSpace=wrap;html=1;gradientColor=none;fillStyle=auto;opacity=90;" parent="1" vertex="1">
          <mxGeometry x="526" y="190" width="60" height="40" as="geometry" />
        </mxCell>
        <mxCell id="Y9xQykt3Nz5YGnt7pqd_-59" style="edgeStyle=orthogonalEdgeStyle;rounded=1;hachureGap=4;orthogonalLoop=1;jettySize=auto;html=1;fontFamily=Architects Daughter;fontSource=https%3A%2F%2Ffonts.googleapis.com%2Fcss%3Ffamily%3DArchitects%2BDaughter;fontSize=16;endSize=3;startSize=3;endArrow=blockThin;endFill=1;entryX=0.5;entryY=0;entryDx=0;entryDy=0;" parent="1" source="Y9xQykt3Nz5YGnt7pqd_-50" target="Y9xQykt3Nz5YGnt7pqd_-15" edge="1">
          <mxGeometry relative="1" as="geometry" />
        </mxCell>
        <mxCell id="Y9xQykt3Nz5YGnt7pqd_-66" style="edgeStyle=orthogonalEdgeStyle;rounded=1;hachureGap=4;orthogonalLoop=1;jettySize=auto;html=1;entryX=0.5;entryY=0;entryDx=0;entryDy=0;fontFamily=Architects Daughter;fontSource=https%3A%2F%2Ffonts.googleapis.com%2Fcss%3Ffamily%3DArchitects%2BDaughter;fontSize=16;endSize=3;startSize=3;endArrow=blockThin;endFill=1;fillColor=#e51400;strokeColor=#B20000;" parent="1" source="Y9xQykt3Nz5YGnt7pqd_-64" target="Y9xQykt3Nz5YGnt7pqd_-40" edge="1">
          <mxGeometry relative="1" as="geometry" />
        </mxCell>
        <mxCell id="Y9xQykt3Nz5YGnt7pqd_-64" value="$$z_{t+1:t+s}$$" style="text;html=1;align=center;verticalAlign=middle;resizable=0;points=[];autosize=1;strokeColor=none;fillColor=none;rounded=1;" parent="1" vertex="1">
          <mxGeometry x="401" y="71" width="110" height="30" as="geometry" />
        </mxCell>
        <mxCell id="Y9xQykt3Nz5YGnt7pqd_-77" value="&lt;font style=&quot;font-size: 12px;&quot;&gt;$$\epsilon$$&lt;/font&gt;" style="text;html=1;align=center;verticalAlign=middle;resizable=0;points=[];autosize=1;strokeColor=none;fillColor=none;fontSize=20;fontFamily=Architects Daughter;" parent="1" vertex="1">
          <mxGeometry x="411" y="310" width="90" height="40" as="geometry" />
        </mxCell>
        <mxCell id="Y9xQykt3Nz5YGnt7pqd_-79" value="" style="endArrow=blockThin;dashed=1;html=1;rounded=0;exitX=0;exitY=1;exitDx=0;exitDy=0;fillColor=#e51400;strokeColor=#000000;entryX=1;entryY=0;entryDx=0;entryDy=0;endFill=1;startSize=3;endSize=3;" parent="1" target="Y9xQykt3Nz5YGnt7pqd_-46" edge="1">
          <mxGeometry width="50" height="50" relative="1" as="geometry">
            <mxPoint x="586" y="190" as="sourcePoint" />
            <mxPoint x="566" y="170" as="targetPoint" />
          </mxGeometry>
        </mxCell>
        <mxCell id="Y9xQykt3Nz5YGnt7pqd_-80" value="" style="endArrow=blockThin;dashed=1;html=1;rounded=0;exitX=0;exitY=1;exitDx=0;exitDy=0;fillColor=#e51400;strokeColor=#000000;entryX=1;entryY=0;entryDx=0;entryDy=0;endFill=1;startSize=3;endSize=3;" parent="1" edge="1">
          <mxGeometry width="50" height="50" relative="1" as="geometry">
            <mxPoint x="396" y="180" as="sourcePoint" />
            <mxPoint x="406" y="190" as="targetPoint" />
          </mxGeometry>
        </mxCell>
        <mxCell id="Y9xQykt3Nz5YGnt7pqd_-120" value="&lt;span style=&quot;color: rgb(0, 0, 0); font-family: &amp;quot;Times New Roman&amp;quot;; font-size: 12px; font-style: normal; font-variant-ligatures: normal; font-variant-caps: normal; font-weight: 400; letter-spacing: normal; orphans: 2; text-indent: 0px; text-transform: none; widows: 2; word-spacing: 0px; -webkit-text-stroke-width: 0px; background-color: rgb(251, 251, 251); text-decoration-thickness: initial; text-decoration-style: initial; text-decoration-color: initial; float: none; display: inline !important;&quot;&gt;Denoiser&lt;/span&gt;" style="text;whiteSpace=wrap;html=1;align=center;" parent="1" vertex="1">
          <mxGeometry x="386" y="50" width="130" height="30" as="geometry" />
        </mxCell>
        <mxCell id="Y9xQykt3Nz5YGnt7pqd_-123" value="&lt;span style=&quot;color: rgb(0, 0, 0); font-family: &amp;quot;Times New Roman&amp;quot;; font-size: 12px; font-style: normal; font-variant-ligatures: normal; font-variant-caps: normal; font-weight: 400; letter-spacing: normal; orphans: 2; text-indent: 0px; text-transform: none; widows: 2; word-spacing: 0px; -webkit-text-stroke-width: 0px; background-color: rgb(251, 251, 251); text-decoration-thickness: initial; text-decoration-style: initial; text-decoration-color: initial; float: none; display: inline !important;&quot;&gt;Downsample Block&lt;/span&gt;" style="text;whiteSpace=wrap;html=1;align=center;" parent="1" vertex="1">
          <mxGeometry x="180.5" y="279" width="130" height="30" as="geometry" />
        </mxCell>
        <mxCell id="Y9xQykt3Nz5YGnt7pqd_-127" style="edgeStyle=orthogonalEdgeStyle;rounded=1;hachureGap=4;orthogonalLoop=1;jettySize=auto;html=1;exitX=0.5;exitY=1;exitDx=0;exitDy=0;entryX=0.5;entryY=0;entryDx=0;entryDy=0;fontFamily=Architects Daughter;fontSource=https%3A%2F%2Ffonts.googleapis.com%2Fcss%3Ffamily%3DArchitects%2BDaughter;fontSize=16;endSize=3;startSize=3;endArrow=blockThin;endFill=1;" parent="1" source="Y9xQykt3Nz5YGnt7pqd_-124" target="Y9xQykt3Nz5YGnt7pqd_-125" edge="1">
          <mxGeometry relative="1" as="geometry" />
        </mxCell>
        <mxCell id="Y9xQykt3Nz5YGnt7pqd_-124" value="&lt;font face=&quot;Times New Roman&quot;&gt;&lt;font style=&quot;font-size: 12px;&quot;&gt;3D ResBlock&lt;/font&gt;&lt;br&gt;&lt;/font&gt;" style="rounded=1;whiteSpace=wrap;html=1;opacity=90;" parent="1" vertex="1">
          <mxGeometry x="215.5" y="319" width="60" height="40" as="geometry" />
        </mxCell>
        <mxCell id="Y9xQykt3Nz5YGnt7pqd_-125" value="&lt;font face=&quot;Times New Roman&quot;&gt;&lt;font style=&quot;font-size: 12px;&quot;&gt;AFNO&lt;br&gt;&lt;/font&gt;CrossAtt&lt;br&gt;&lt;/font&gt;" style="rounded=1;whiteSpace=wrap;html=1;opacity=90;" parent="1" vertex="1">
          <mxGeometry x="215.5" y="379" width="60" height="40" as="geometry" />
        </mxCell>
        <mxCell id="Y9xQykt3Nz5YGnt7pqd_-129" value="&lt;font face=&quot;Times New Roman&quot;&gt;Strided 3DConv&lt;br&gt;&lt;/font&gt;" style="rounded=1;whiteSpace=wrap;html=1;opacity=90;" parent="1" vertex="1">
          <mxGeometry x="215.5" y="440" width="60" height="40" as="geometry" />
        </mxCell>
        <mxCell id="Y9xQykt3Nz5YGnt7pqd_-130" style="edgeStyle=orthogonalEdgeStyle;rounded=1;hachureGap=4;orthogonalLoop=1;jettySize=auto;html=1;exitX=0.5;exitY=1;exitDx=0;exitDy=0;fontFamily=Architects Daughter;fontSource=https%3A%2F%2Ffonts.googleapis.com%2Fcss%3Ffamily%3DArchitects%2BDaughter;fontSize=16;endSize=3;startSize=3;endArrow=blockThin;endFill=1;" parent="1" edge="1">
          <mxGeometry relative="1" as="geometry">
            <mxPoint x="245.5" y="419" as="sourcePoint" />
            <mxPoint x="245.5" y="439" as="targetPoint" />
          </mxGeometry>
        </mxCell>
        <mxCell id="Y9xQykt3Nz5YGnt7pqd_-134" value="&lt;span style=&quot;color: rgb(0, 0, 0); font-family: &amp;quot;Times New Roman&amp;quot;; font-size: 12px; font-style: normal; font-variant-ligatures: normal; font-variant-caps: normal; font-weight: 400; letter-spacing: normal; orphans: 2; text-indent: 0px; text-transform: none; widows: 2; word-spacing: 0px; -webkit-text-stroke-width: 0px; background-color: rgb(251, 251, 251); text-decoration-thickness: initial; text-decoration-style: initial; text-decoration-color: initial; float: none; display: inline !important;&quot;&gt;Upsample Block&lt;/span&gt;" style="text;whiteSpace=wrap;html=1;align=center;" parent="1" vertex="1">
          <mxGeometry x="58.5" y="244" width="130" height="30" as="geometry" />
        </mxCell>
        <mxCell id="Y9xQykt3Nz5YGnt7pqd_-135" style="edgeStyle=orthogonalEdgeStyle;rounded=1;hachureGap=4;orthogonalLoop=1;jettySize=auto;html=1;exitX=0.5;exitY=1;exitDx=0;exitDy=0;entryX=0.5;entryY=0;entryDx=0;entryDy=0;fontFamily=Architects Daughter;fontSource=https%3A%2F%2Ffonts.googleapis.com%2Fcss%3Ffamily%3DArchitects%2BDaughter;fontSize=16;endSize=3;startSize=3;endArrow=blockThin;endFill=1;" parent="1" source="Y9xQykt3Nz5YGnt7pqd_-136" target="Y9xQykt3Nz5YGnt7pqd_-186" edge="1">
          <mxGeometry relative="1" as="geometry" />
        </mxCell>
        <mxCell id="Y9xQykt3Nz5YGnt7pqd_-136" value="&lt;font face=&quot;Times New Roman&quot;&gt;Interpolate&lt;br&gt;&lt;/font&gt;" style="rounded=1;whiteSpace=wrap;html=1;opacity=90;" parent="1" vertex="1">
          <mxGeometry x="94.5" y="286" width="60" height="20" as="geometry" />
        </mxCell>
        <mxCell id="Y9xQykt3Nz5YGnt7pqd_-137" value="&lt;font face=&quot;Times New Roman&quot;&gt;3D ResBlock&lt;br&gt;&lt;/font&gt;" style="rounded=1;whiteSpace=wrap;html=1;opacity=90;" parent="1" vertex="1">
          <mxGeometry x="94.5" y="367" width="60" height="40" as="geometry" />
        </mxCell>
        <mxCell id="Y9xQykt3Nz5YGnt7pqd_-138" value="&lt;font style=&quot;font-size: 9px;&quot;&gt;$$\times 2$$&lt;/font&gt;" style="text;html=1;align=center;verticalAlign=middle;resizable=0;points=[];autosize=1;strokeColor=none;fillColor=none;fontSize=20;fontFamily=Architects Daughter;" parent="1" vertex="1">
          <mxGeometry x="132.5" y="391" width="80" height="40" as="geometry" />
        </mxCell>
        <mxCell id="Y9xQykt3Nz5YGnt7pqd_-139" value="&lt;font face=&quot;Times New Roman&quot;&gt;&lt;font style=&quot;border-color: var(--border-color);&quot;&gt;AFNO&lt;br style=&quot;border-color: var(--border-color);&quot;&gt;&lt;/font&gt;CrossAtt&lt;br&gt;&lt;/font&gt;" style="rounded=1;whiteSpace=wrap;html=1;opacity=90;" parent="1" vertex="1">
          <mxGeometry x="94.5" y="426" width="60" height="40" as="geometry" />
        </mxCell>
        <mxCell id="Y9xQykt3Nz5YGnt7pqd_-140" style="edgeStyle=orthogonalEdgeStyle;rounded=1;hachureGap=4;orthogonalLoop=1;jettySize=auto;html=1;exitX=0.5;exitY=1;exitDx=0;exitDy=0;fontFamily=Architects Daughter;fontSource=https%3A%2F%2Ffonts.googleapis.com%2Fcss%3Ffamily%3DArchitects%2BDaughter;fontSize=16;endSize=3;startSize=3;endArrow=blockThin;endFill=1;" parent="1" edge="1">
          <mxGeometry relative="1" as="geometry">
            <mxPoint x="124.5" y="407" as="sourcePoint" />
            <mxPoint x="124.5" y="426" as="targetPoint" />
          </mxGeometry>
        </mxCell>
        <mxCell id="Y9xQykt3Nz5YGnt7pqd_-145" value="&lt;span style=&quot;color: rgb(0, 0, 0); font-family: &amp;quot;Times New Roman&amp;quot;; font-size: 12px; font-style: normal; font-variant-ligatures: normal; font-variant-caps: normal; font-weight: 400; letter-spacing: normal; orphans: 2; text-indent: 0px; text-transform: none; widows: 2; word-spacing: 0px; -webkit-text-stroke-width: 0px; background-color: rgb(251, 251, 251); text-decoration-thickness: initial; text-decoration-style: initial; text-decoration-color: initial; float: none; display: inline !important;&quot;&gt;AFNO CrossAtt&lt;/span&gt;" style="text;whiteSpace=wrap;html=1;align=center;" parent="1" vertex="1">
          <mxGeometry x="609" y="50" width="130" height="30" as="geometry" />
        </mxCell>
        <mxCell id="Y9xQykt3Nz5YGnt7pqd_-157" value="" style="endArrow=none;html=1;rounded=1;sketch=1;hachureGap=4;jiggle=2;curveFitting=1;fontFamily=Architects Daughter;fontSource=https%3A%2F%2Ffonts.googleapis.com%2Fcss%3Ffamily%3DArchitects%2BDaughter;fontSize=16;" parent="1" edge="1">
          <mxGeometry width="50" height="50" relative="1" as="geometry">
            <mxPoint x="643.7058823529412" y="80" as="sourcePoint" />
            <mxPoint x="643.7058823529412" y="80" as="targetPoint" />
          </mxGeometry>
        </mxCell>
        <mxCell id="Y9xQykt3Nz5YGnt7pqd_-169" style="edgeStyle=orthogonalEdgeStyle;rounded=1;hachureGap=4;orthogonalLoop=1;jettySize=auto;html=1;fontFamily=Architects Daughter;fontSource=https%3A%2F%2Ffonts.googleapis.com%2Fcss%3Ffamily%3DArchitects%2BDaughter;fontSize=16;endSize=3;startSize=3;endArrow=blockThin;endFill=1;" parent="1" source="Y9xQykt3Nz5YGnt7pqd_-161" target="Y9xQykt3Nz5YGnt7pqd_-163" edge="1">
          <mxGeometry relative="1" as="geometry" />
        </mxCell>
        <mxCell id="Y9xQykt3Nz5YGnt7pqd_-161" value="&lt;font face=&quot;Times New Roman&quot;&gt;FFT&lt;br&gt;&lt;/font&gt;" style="rounded=1;whiteSpace=wrap;html=1;opacity=90;" parent="1" vertex="1">
          <mxGeometry x="650" y="170" width="60" height="20" as="geometry" />
        </mxCell>
        <mxCell id="Y9xQykt3Nz5YGnt7pqd_-170" style="edgeStyle=orthogonalEdgeStyle;rounded=1;hachureGap=4;orthogonalLoop=1;jettySize=auto;html=1;exitX=0.5;exitY=1;exitDx=0;exitDy=0;entryX=0.5;entryY=0;entryDx=0;entryDy=0;fontFamily=Architects Daughter;fontSource=https%3A%2F%2Ffonts.googleapis.com%2Fcss%3Ffamily%3DArchitects%2BDaughter;fontSize=16;endSize=3;startSize=3;endArrow=blockThin;endFill=1;" parent="1" source="Y9xQykt3Nz5YGnt7pqd_-162" target="Y9xQykt3Nz5YGnt7pqd_-161" edge="1">
          <mxGeometry relative="1" as="geometry">
            <Array as="points">
              <mxPoint x="680" y="160" />
              <mxPoint x="680" y="160" />
            </Array>
          </mxGeometry>
        </mxCell>
        <mxCell id="Y9xQykt3Nz5YGnt7pqd_-162" value="&lt;font face=&quot;Times New Roman&quot;&gt;Concat&lt;br&gt;&lt;/font&gt;" style="rounded=1;whiteSpace=wrap;html=1;opacity=90;" parent="1" vertex="1">
          <mxGeometry x="650" y="111" width="60" height="20" as="geometry" />
        </mxCell>
        <mxCell id="Y9xQykt3Nz5YGnt7pqd_-168" style="edgeStyle=orthogonalEdgeStyle;rounded=1;hachureGap=4;orthogonalLoop=1;jettySize=auto;html=1;exitX=0.5;exitY=1;exitDx=0;exitDy=0;entryX=0.5;entryY=0;entryDx=0;entryDy=0;fontFamily=Architects Daughter;fontSource=https%3A%2F%2Ffonts.googleapis.com%2Fcss%3Ffamily%3DArchitects%2BDaughter;fontSize=16;endSize=3;startSize=3;endArrow=blockThin;endFill=1;" parent="1" source="Y9xQykt3Nz5YGnt7pqd_-163" target="Y9xQykt3Nz5YGnt7pqd_-164" edge="1">
          <mxGeometry relative="1" as="geometry" />
        </mxCell>
        <mxCell id="Y9xQykt3Nz5YGnt7pqd_-163" value="&lt;font face=&quot;Times New Roman&quot;&gt;MLP&lt;br&gt;&lt;/font&gt;" style="rounded=1;whiteSpace=wrap;html=1;opacity=90;" parent="1" vertex="1">
          <mxGeometry x="650" y="210" width="60" height="20" as="geometry" />
        </mxCell>
        <mxCell id="Y9xQykt3Nz5YGnt7pqd_-167" style="edgeStyle=orthogonalEdgeStyle;rounded=1;hachureGap=4;orthogonalLoop=1;jettySize=auto;html=1;exitX=0.5;exitY=1;exitDx=0;exitDy=0;entryX=0.5;entryY=0;entryDx=0;entryDy=0;fontFamily=Architects Daughter;fontSource=https%3A%2F%2Ffonts.googleapis.com%2Fcss%3Ffamily%3DArchitects%2BDaughter;fontSize=16;endSize=3;startSize=3;endArrow=blockThin;endFill=1;" parent="1" source="Y9xQykt3Nz5YGnt7pqd_-164" target="Y9xQykt3Nz5YGnt7pqd_-165" edge="1">
          <mxGeometry relative="1" as="geometry" />
        </mxCell>
        <mxCell id="Y9xQykt3Nz5YGnt7pqd_-164" value="&lt;font face=&quot;Times New Roman&quot;&gt;IFFT&lt;br&gt;&lt;/font&gt;" style="rounded=1;whiteSpace=wrap;html=1;opacity=90;" parent="1" vertex="1">
          <mxGeometry x="650" y="250" width="60" height="20" as="geometry" />
        </mxCell>
        <mxCell id="Y9xQykt3Nz5YGnt7pqd_-165" value="&lt;font face=&quot;Times New Roman&quot;&gt;MLP&lt;br&gt;&lt;/font&gt;" style="rounded=1;whiteSpace=wrap;html=1;opacity=90;" parent="1" vertex="1">
          <mxGeometry x="650" y="290" width="60" height="20" as="geometry" />
        </mxCell>
        <mxCell id="Y9xQykt3Nz5YGnt7pqd_-173" style="edgeStyle=orthogonalEdgeStyle;rounded=1;hachureGap=4;orthogonalLoop=1;jettySize=auto;html=1;fontFamily=Architects Daughter;fontSource=https%3A%2F%2Ffonts.googleapis.com%2Fcss%3Ffamily%3DArchitects%2BDaughter;fontSize=16;endSize=3;startSize=3;endArrow=blockThin;endFill=1;" parent="1" target="Y9xQykt3Nz5YGnt7pqd_-162" edge="1">
          <mxGeometry relative="1" as="geometry">
            <mxPoint x="660" y="90" as="sourcePoint" />
            <mxPoint x="660" y="90" as="targetPoint" />
            <Array as="points">
              <mxPoint x="680" y="90" />
            </Array>
          </mxGeometry>
        </mxCell>
        <mxCell id="Y9xQykt3Nz5YGnt7pqd_-174" style="edgeStyle=orthogonalEdgeStyle;rounded=1;hachureGap=4;orthogonalLoop=1;jettySize=auto;html=1;fontFamily=Architects Daughter;fontSource=https%3A%2F%2Ffonts.googleapis.com%2Fcss%3Ffamily%3DArchitects%2BDaughter;fontSize=16;exitX=0.35;exitY=0.5;exitDx=0;exitDy=0;exitPerimeter=0;entryX=0.5;entryY=0;entryDx=0;entryDy=0;endSize=3;startSize=3;endArrow=blockThin;endFill=1;" parent="1" target="Y9xQykt3Nz5YGnt7pqd_-162" edge="1">
          <mxGeometry relative="1" as="geometry">
            <mxPoint x="700" y="90" as="sourcePoint" />
          </mxGeometry>
        </mxCell>
        <mxCell id="Y9xQykt3Nz5YGnt7pqd_-175" style="edgeStyle=orthogonalEdgeStyle;rounded=1;hachureGap=4;orthogonalLoop=1;jettySize=auto;html=1;fontFamily=Architects Daughter;fontSource=https%3A%2F%2Ffonts.googleapis.com%2Fcss%3Ffamily%3DArchitects%2BDaughter;fontSize=16;endSize=3;startSize=3;endArrow=blockThin;endFill=1;exitX=0.333;exitY=0.725;exitDx=0;exitDy=0;exitPerimeter=0;entryX=0;entryY=0.5;entryDx=0;entryDy=0;" parent="1" target="Y9xQykt3Nz5YGnt7pqd_-176" edge="1">
          <mxGeometry relative="1" as="geometry">
            <mxPoint x="639.98" y="100" as="sourcePoint" />
            <mxPoint x="670" y="140" as="targetPoint" />
            <Array as="points">
              <mxPoint x="640" y="150" />
            </Array>
          </mxGeometry>
        </mxCell>
        <mxCell id="Y9xQykt3Nz5YGnt7pqd_-176" value="" style="shape=orEllipse;perimeter=ellipsePerimeter;whiteSpace=wrap;html=1;backgroundOutline=1;rounded=1;hachureGap=4;fontFamily=Architects Daughter;fontSource=https%3A%2F%2Ffonts.googleapis.com%2Fcss%3Ffamily%3DArchitects%2BDaughter;fontSize=20;" parent="1" vertex="1">
          <mxGeometry x="677" y="147" width="6" height="6" as="geometry" />
        </mxCell>
        <mxCell id="Y9xQykt3Nz5YGnt7pqd_-178" value="&lt;font style=&quot;font-size: 12px;&quot;&gt;$$y$$&lt;/font&gt;" style="text;html=1;align=center;verticalAlign=middle;resizable=0;points=[];autosize=1;strokeColor=none;fillColor=none;fontSize=20;fontFamily=Architects Daughter;" parent="1" vertex="1">
          <mxGeometry x="689" y="68" width="60" height="40" as="geometry" />
        </mxCell>
        <mxCell id="Y9xQykt3Nz5YGnt7pqd_-179" value="&lt;font style=&quot;font-size: 12px;&quot;&gt;$$x$$&lt;/font&gt;" style="text;html=1;align=center;verticalAlign=middle;resizable=0;points=[];autosize=1;strokeColor=none;fillColor=none;fontSize=20;fontFamily=Architects Daughter;" parent="1" vertex="1">
          <mxGeometry x="609" y="71" width="60" height="40" as="geometry" />
        </mxCell>
        <mxCell id="Y9xQykt3Nz5YGnt7pqd_-181" value="" style="endArrow=blockThin;html=1;rounded=1;hachureGap=4;fontFamily=Architects Daughter;fontSource=https%3A%2F%2Ffonts.googleapis.com%2Fcss%3Ffamily%3DArchitects%2BDaughter;fontSize=16;endSize=3;startSize=3;entryX=0;entryY=0.5;entryDx=0;entryDy=0;endFill=1;" parent="1" target="Y9xQykt3Nz5YGnt7pqd_-182" edge="1">
          <mxGeometry width="50" height="50" relative="1" as="geometry">
            <mxPoint x="680" y="160" as="sourcePoint" />
            <mxPoint x="670" y="280" as="targetPoint" />
            <Array as="points">
              <mxPoint x="640" y="160" />
              <mxPoint x="640" y="220" />
              <mxPoint x="640" y="280" />
            </Array>
          </mxGeometry>
        </mxCell>
        <mxCell id="Y9xQykt3Nz5YGnt7pqd_-182" value="" style="shape=orEllipse;perimeter=ellipsePerimeter;whiteSpace=wrap;html=1;backgroundOutline=1;rounded=1;hachureGap=4;fontFamily=Architects Daughter;fontSource=https%3A%2F%2Ffonts.googleapis.com%2Fcss%3Ffamily%3DArchitects%2BDaughter;fontSize=20;" parent="1" vertex="1">
          <mxGeometry x="677" y="277" width="6" height="6" as="geometry" />
        </mxCell>
        <mxCell id="Y9xQykt3Nz5YGnt7pqd_-185" value="" style="rounded=0;whiteSpace=wrap;html=1;fillColor=none;dashed=1;dashPattern=1 2;" parent="1" vertex="1">
          <mxGeometry x="625" y="80" width="110" height="240" as="geometry" />
        </mxCell>
        <mxCell id="Y9xQykt3Nz5YGnt7pqd_-187" style="edgeStyle=orthogonalEdgeStyle;rounded=1;hachureGap=4;orthogonalLoop=1;jettySize=auto;html=1;exitX=0.5;exitY=1;exitDx=0;exitDy=0;fontFamily=Architects Daughter;fontSource=https%3A%2F%2Ffonts.googleapis.com%2Fcss%3Ffamily%3DArchitects%2BDaughter;fontSize=16;endSize=3;startSize=3;endArrow=blockThin;endFill=1;" parent="1" source="Y9xQykt3Nz5YGnt7pqd_-186" target="Y9xQykt3Nz5YGnt7pqd_-137" edge="1">
          <mxGeometry relative="1" as="geometry" />
        </mxCell>
        <mxCell id="Y9xQykt3Nz5YGnt7pqd_-186" value="&lt;font face=&quot;Times New Roman&quot;&gt;3D Conv&lt;br&gt;&lt;/font&gt;" style="rounded=1;whiteSpace=wrap;html=1;opacity=90;" parent="1" vertex="1">
          <mxGeometry x="94.5" y="326" width="60" height="20" as="geometry" />
        </mxCell>
        <mxCell id="Y9xQykt3Nz5YGnt7pqd_-189" value="" style="endArrow=blockThin;dashed=1;html=1;rounded=0;exitX=0.982;exitY=0;exitDx=0;exitDy=0;fillColor=#e51400;strokeColor=#000000;entryX=1;entryY=0;entryDx=0;entryDy=0;endFill=1;startSize=3;endSize=3;exitPerimeter=0;" parent="1" source="Y9xQykt3Nz5YGnt7pqd_-40" edge="1">
          <mxGeometry width="50" height="50" relative="1" as="geometry">
            <mxPoint x="476" y="111" as="sourcePoint" />
            <mxPoint x="496" y="131" as="targetPoint" />
          </mxGeometry>
        </mxCell>
        <mxCell id="Y9xQykt3Nz5YGnt7pqd_-190" value="&lt;font style=&quot;font-size: 9px;&quot;&gt;$$\times 3$$&lt;/font&gt;" style="text;html=1;align=center;verticalAlign=middle;resizable=0;points=[];autosize=1;strokeColor=none;fillColor=none;fontSize=20;fontFamily=Architects Daughter;" parent="1" vertex="1">
          <mxGeometry x="558.5" y="260" width="80" height="40" as="geometry" />
        </mxCell>
        <mxCell id="Y9xQykt3Nz5YGnt7pqd_-196" style="edgeStyle=orthogonalEdgeStyle;rounded=1;hachureGap=4;orthogonalLoop=1;jettySize=auto;html=1;entryX=0.5;entryY=0;entryDx=0;entryDy=0;fontFamily=Architects Daughter;fontSource=https%3A%2F%2Ffonts.googleapis.com%2Fcss%3Ffamily%3DArchitects%2BDaughter;fontSize=16;startSize=3;endSize=3;fillColor=#e51400;strokeColor=#B20000;endArrow=blockThin;endFill=1;" parent="1" source="Y9xQykt3Nz5YGnt7pqd_-64" target="Y9xQykt3Nz5YGnt7pqd_-44" edge="1">
          <mxGeometry relative="1" as="geometry">
            <Array as="points">
              <mxPoint x="455.5" y="110" />
              <mxPoint x="366.5" y="110" />
              <mxPoint x="366.5" y="160" />
            </Array>
          </mxGeometry>
        </mxCell>
        <mxCell id="Y9xQykt3Nz5YGnt7pqd_-197" style="edgeStyle=orthogonalEdgeStyle;rounded=1;hachureGap=4;orthogonalLoop=1;jettySize=auto;html=1;entryX=0.5;entryY=0;entryDx=0;entryDy=0;fontFamily=Architects Daughter;fontSource=https%3A%2F%2Ffonts.googleapis.com%2Fcss%3Ffamily%3DArchitects%2BDaughter;fontSize=16;fillColor=#e51400;strokeColor=#B20000;endArrow=blockThin;endFill=1;endSize=3;startSize=3;" parent="1" source="Y9xQykt3Nz5YGnt7pqd_-64" target="Y9xQykt3Nz5YGnt7pqd_-46" edge="1">
          <mxGeometry relative="1" as="geometry">
            <Array as="points">
              <mxPoint x="455.5" y="110" />
              <mxPoint x="546.5" y="110" />
              <mxPoint x="546.5" y="180" />
            </Array>
          </mxGeometry>
        </mxCell>
        <mxCell id="x2_8KZy3uIM9j4aacUvW-1" value="" style="rounded=0;whiteSpace=wrap;html=1;fillColor=none;dashed=1;fontColor=#ffffff;strokeColor=#B20000;" parent="1" vertex="1">
          <mxGeometry x="635" y="155" width="80" height="160" as="geometry" />
        </mxCell>
        <mxCell id="x2_8KZy3uIM9j4aacUvW-2" value="&lt;span style=&quot;font-family: &amp;quot;Times New Roman&amp;quot;; font-size: 12px; font-style: normal; font-variant-ligatures: normal; font-variant-caps: normal; font-weight: 400; letter-spacing: normal; orphans: 2; text-indent: 0px; text-transform: none; widows: 2; word-spacing: 0px; -webkit-text-stroke-width: 0px; background-color: rgb(251, 251, 251); text-decoration-thickness: initial; text-decoration-style: initial; text-decoration-color: initial; float: none; display: inline !important;&quot;&gt;&lt;font color=&quot;#cc0000&quot;&gt;AFNO &lt;br&gt;Block&lt;/font&gt;&lt;br&gt;&lt;/span&gt;" style="text;whiteSpace=wrap;html=1;align=center;" parent="1" vertex="1">
          <mxGeometry x="719" y="210" width="32" height="30" as="geometry" />
        </mxCell>
        <mxCell id="dDqRAfCX4KW8CPbdggCC-1" value="&lt;font style=&quot;font-size: 9px;&quot;&gt;$$\times 4$$&lt;/font&gt;" style="text;html=1;align=center;verticalAlign=middle;resizable=0;points=[];autosize=1;strokeColor=none;fillColor=none;fontSize=20;fontFamily=Architects Daughter;" vertex="1" parent="1">
          <mxGeometry x="254.5" y="95" width="80" height="40" as="geometry" />
        </mxCell>
        <mxCell id="dDqRAfCX4KW8CPbdggCC-3" value="" style="rounded=0;whiteSpace=wrap;html=1;fillColor=none;dashed=1;" vertex="1" parent="1">
          <mxGeometry x="205.5" y="85" width="80" height="60" as="geometry" />
        </mxCell>
        <mxCell id="dDqRAfCX4KW8CPbdggCC-4" value="&lt;span style=&quot;color: rgb(0, 0, 0); font-family: &amp;quot;Times New Roman&amp;quot;; font-size: 12px; font-style: normal; font-variant-ligatures: normal; font-variant-caps: normal; font-weight: 400; letter-spacing: normal; orphans: 2; text-indent: 0px; text-transform: none; widows: 2; word-spacing: 0px; -webkit-text-stroke-width: 0px; background-color: rgb(251, 251, 251); text-decoration-thickness: initial; text-decoration-style: initial; text-decoration-color: initial; float: none; display: inline !important;&quot;&gt;Nowcaster&lt;/span&gt;" style="text;whiteSpace=wrap;html=1;align=center;" vertex="1" parent="1">
          <mxGeometry x="184.5" y="50" width="130" height="30" as="geometry" />
        </mxCell>
        <mxCell id="dDqRAfCX4KW8CPbdggCC-5" style="edgeStyle=orthogonalEdgeStyle;rounded=1;hachureGap=4;orthogonalLoop=1;jettySize=auto;html=1;exitX=0.5;exitY=1;exitDx=0;exitDy=0;entryX=0.5;entryY=0;entryDx=0;entryDy=0;fontFamily=Architects Daughter;fontSource=https%3A%2F%2Ffonts.googleapis.com%2Fcss%3Ffamily%3DArchitects%2BDaughter;fontSize=16;endSize=3;startSize=3;endArrow=blockThin;endFill=1;" edge="1" parent="1" source="dDqRAfCX4KW8CPbdggCC-6" target="dDqRAfCX4KW8CPbdggCC-7">
          <mxGeometry relative="1" as="geometry" />
        </mxCell>
        <mxCell id="dDqRAfCX4KW8CPbdggCC-6" value="&lt;font face=&quot;Times New Roman&quot;&gt;&lt;font style=&quot;font-size: 12px;&quot;&gt;AFNO Block&lt;/font&gt;&lt;br&gt;&lt;/font&gt;" style="rounded=1;whiteSpace=wrap;html=1;opacity=90;" vertex="1" parent="1">
          <mxGeometry x="215.5" y="95" width="60" height="40" as="geometry" />
        </mxCell>
        <mxCell id="dDqRAfCX4KW8CPbdggCC-7" value="&lt;font style=&quot;font-size: 11px;&quot; face=&quot;Times New Roman&quot;&gt;Temporal&lt;/font&gt;&lt;div style=&quot;font-size: 11px;&quot;&gt;&lt;font style=&quot;font-size: 11px;&quot; face=&quot;Times New Roman&quot;&gt;Transformer&lt;/font&gt;&lt;/div&gt;" style="rounded=1;whiteSpace=wrap;html=1;opacity=90;" vertex="1" parent="1">
          <mxGeometry x="215.5" y="155" width="60" height="40" as="geometry" />
        </mxCell>
        <mxCell id="dDqRAfCX4KW8CPbdggCC-9" style="edgeStyle=orthogonalEdgeStyle;rounded=1;hachureGap=4;orthogonalLoop=1;jettySize=auto;html=1;exitX=0.5;exitY=1;exitDx=0;exitDy=0;fontFamily=Architects Daughter;fontSource=https%3A%2F%2Ffonts.googleapis.com%2Fcss%3Ffamily%3DArchitects%2BDaughter;fontSize=16;endSize=3;startSize=3;endArrow=blockThin;endFill=1;" edge="1" parent="1">
          <mxGeometry relative="1" as="geometry">
            <mxPoint x="245.5" y="195" as="sourcePoint" />
            <mxPoint x="245.5" y="215" as="targetPoint" />
          </mxGeometry>
        </mxCell>
        <mxCell id="dDqRAfCX4KW8CPbdggCC-10" value="&lt;font style=&quot;font-size: 9px;&quot;&gt;$$\times 4$$&lt;/font&gt;" style="text;html=1;align=center;verticalAlign=middle;resizable=0;points=[];autosize=1;strokeColor=none;fillColor=none;fontSize=20;fontFamily=Architects Daughter;" vertex="1" parent="1">
          <mxGeometry x="254.5" y="215" width="80" height="40" as="geometry" />
        </mxCell>
        <mxCell id="dDqRAfCX4KW8CPbdggCC-11" value="" style="rounded=0;whiteSpace=wrap;html=1;fillColor=none;dashed=1;" vertex="1" parent="1">
          <mxGeometry x="205.5" y="205" width="80" height="60" as="geometry" />
        </mxCell>
        <mxCell id="dDqRAfCX4KW8CPbdggCC-12" value="&lt;font face=&quot;Times New Roman&quot;&gt;&lt;font style=&quot;font-size: 12px;&quot;&gt;AFNO Block&lt;/font&gt;&lt;br&gt;&lt;/font&gt;" style="rounded=1;whiteSpace=wrap;html=1;opacity=90;" vertex="1" parent="1">
          <mxGeometry x="215.5" y="215" width="60" height="40" as="geometry" />
        </mxCell>
        <mxCell id="dDqRAfCX4KW8CPbdggCC-13" value="" style="rounded=0;whiteSpace=wrap;html=1;fillColor=none;dashed=1;dashPattern=1 2;" vertex="1" parent="1">
          <mxGeometry x="73.5" y="80" width="110" height="160" as="geometry" />
        </mxCell>
        <mxCell id="dDqRAfCX4KW8CPbdggCC-14" value="&lt;font style=&quot;font-size: 9px;&quot;&gt;$$\times 2$$&lt;/font&gt;" style="text;html=1;align=center;verticalAlign=middle;resizable=0;points=[];autosize=1;strokeColor=none;fillColor=none;fontSize=20;fontFamily=Architects Daughter;" vertex="1" parent="1">
          <mxGeometry x="135.5" y="107.5" width="80" height="40" as="geometry" />
        </mxCell>
        <mxCell id="dDqRAfCX4KW8CPbdggCC-15" value="" style="rounded=0;whiteSpace=wrap;html=1;fillColor=none;dashed=1;" vertex="1" parent="1">
          <mxGeometry x="86.5" y="102.5" width="80" height="50" as="geometry" />
        </mxCell>
        <mxCell id="dDqRAfCX4KW8CPbdggCC-16" value="&lt;span style=&quot;color: rgb(0, 0, 0); font-family: &amp;quot;Times New Roman&amp;quot;; font-size: 12px; font-style: normal; font-variant-ligatures: normal; font-variant-caps: normal; font-weight: 400; letter-spacing: normal; orphans: 2; text-indent: 0px; text-transform: none; widows: 2; word-spacing: 0px; -webkit-text-stroke-width: 0px; background-color: rgb(251, 251, 251); text-decoration-thickness: initial; text-decoration-style: initial; text-decoration-color: initial; float: none; display: inline !important;&quot;&gt;Variational Autoencoder&lt;/span&gt;" style="text;whiteSpace=wrap;html=1;align=center;" vertex="1" parent="1">
          <mxGeometry x="60.25" y="50" width="136.5" height="30" as="geometry" />
        </mxCell>
        <mxCell id="dDqRAfCX4KW8CPbdggCC-18" value="&lt;font style=&quot;font-size: 9px;&quot; face=&quot;Times New Roman&quot;&gt;&lt;font style=&quot;font-size: 9px;&quot;&gt;Downsampling&lt;/font&gt;&lt;br&gt;&lt;/font&gt;&lt;div style=&quot;font-size: 9px;&quot;&gt;&lt;font style=&quot;font-size: 9px;&quot; face=&quot;Times New Roman&quot;&gt;&lt;font style=&quot;font-size: 9px;&quot;&gt;3D ResBlock&lt;/font&gt;&lt;/font&gt;&lt;/div&gt;" style="rounded=1;whiteSpace=wrap;html=1;opacity=90;" vertex="1" parent="1">
          <mxGeometry x="96.5" y="107.5" width="60" height="40" as="geometry" />
        </mxCell>
        <mxCell id="dDqRAfCX4KW8CPbdggCC-24" value="&lt;span style=&quot;color: rgb(0, 0, 0); font-family: &amp;quot;Times New Roman&amp;quot;; font-style: normal; font-variant-ligatures: normal; font-variant-caps: normal; font-weight: 400; letter-spacing: normal; orphans: 2; text-indent: 0px; text-transform: none; widows: 2; word-spacing: 0px; -webkit-text-stroke-width: 0px; white-space: normal; background-color: rgb(251, 251, 251); text-decoration-thickness: initial; text-decoration-style: initial; text-decoration-color: initial; float: none; display: inline !important;&quot;&gt;&lt;font style=&quot;font-size: 11px;&quot;&gt;Encoder&lt;/font&gt;&lt;/span&gt;" style="text;whiteSpace=wrap;html=1;fontFamily=Architects Daughter;fontSource=https%3A%2F%2Ffonts.googleapis.com%2Fcss%3Ffamily%3DArchitects%2BDaughter;align=center;" vertex="1" parent="1">
          <mxGeometry x="86.5" y="77.5" width="80" height="40" as="geometry" />
        </mxCell>
        <mxCell id="dDqRAfCX4KW8CPbdggCC-25" value="&lt;font style=&quot;font-size: 9px;&quot;&gt;$$\times 2$$&lt;/font&gt;" style="text;html=1;align=center;verticalAlign=middle;resizable=0;points=[];autosize=1;strokeColor=none;fillColor=none;fontSize=20;fontFamily=Architects Daughter;" vertex="1" parent="1">
          <mxGeometry x="135.5" y="183" width="80" height="40" as="geometry" />
        </mxCell>
        <mxCell id="dDqRAfCX4KW8CPbdggCC-26" value="" style="rounded=0;whiteSpace=wrap;html=1;fillColor=none;dashed=1;" vertex="1" parent="1">
          <mxGeometry x="86.5" y="178" width="80" height="50" as="geometry" />
        </mxCell>
        <mxCell id="dDqRAfCX4KW8CPbdggCC-27" value="&lt;font style=&quot;font-size: 9px;&quot; face=&quot;Times New Roman&quot;&gt;&lt;font style=&quot;font-size: 9px;&quot;&gt;Downsampling&lt;/font&gt;&lt;br&gt;&lt;/font&gt;&lt;div style=&quot;font-size: 9px;&quot;&gt;&lt;font style=&quot;font-size: 9px;&quot; face=&quot;Times New Roman&quot;&gt;&lt;font style=&quot;font-size: 9px;&quot;&gt;3D ResBlock&lt;/font&gt;&lt;/font&gt;&lt;/div&gt;" style="rounded=1;whiteSpace=wrap;html=1;opacity=90;" vertex="1" parent="1">
          <mxGeometry x="96.5" y="183" width="60" height="40" as="geometry" />
        </mxCell>
        <mxCell id="dDqRAfCX4KW8CPbdggCC-28" value="&lt;span style=&quot;color: rgb(0, 0, 0); font-family: &amp;quot;Times New Roman&amp;quot;; font-style: normal; font-variant-ligatures: normal; font-variant-caps: normal; font-weight: 400; letter-spacing: normal; orphans: 2; text-indent: 0px; text-transform: none; widows: 2; word-spacing: 0px; -webkit-text-stroke-width: 0px; white-space: normal; background-color: rgb(251, 251, 251); text-decoration-thickness: initial; text-decoration-style: initial; text-decoration-color: initial; float: none; display: inline !important;&quot;&gt;&lt;font style=&quot;font-size: 11px;&quot;&gt;Decoder&lt;/font&gt;&lt;/span&gt;" style="text;whiteSpace=wrap;html=1;fontFamily=Architects Daughter;fontSource=https%3A%2F%2Ffonts.googleapis.com%2Fcss%3Ffamily%3DArchitects%2BDaughter;align=center;" vertex="1" parent="1">
          <mxGeometry x="86.5" y="153" width="80" height="40" as="geometry" />
        </mxCell>
      </root>
    </mxGraphModel>
  </diagram>
</mxfile>
